<svg xmlns="http://www.w3.org/2000/svg" viewBox="0 0 400 800" width="100%" height="100%">
  <defs>
    <linearGradient id="body-grad" x1="0%" y1="0%" x2="100%" y2="100%">
      <stop offset="0%" stop-color="#4A6FA5" />
      <stop offset="40%" stop-color="#325078" />
      <stop offset="100%" stop-color="#1D3452" />
    </linearGradient>
    <linearGradient id="bevel-grad" x1="0%" y1="0%" x2="0%" y2="100%">
      <stop offset="0%" stop-color="#ffffff" stop-opacity="0.2" />
      <stop offset="100%" stop-color="#000000" stop-opacity="0.3" />
    </linearGradient>
    <linearGradient id="ring-grad" x1="0%" y1="0%" x2="100%" y2="100%">
      <stop offset="0%" stop-color="#5C84BD" />
      <stop offset="100%" stop-color="#13243B" />
    </linearGradient>
    <radialGradient id="lens-glass" cx="40%" cy="40%" r="60%">
      <stop offset="0%" stop-color="#1c2d42" />
      <stop offset="70%" stop-color="#0b131c" />
      <stop offset="100%" stop-color="#020406" />
    </radialGradient>
    <filter id="shadow" x="-10%" y="-10%" width="120%" height="120%">
      <feDropShadow dx="0" dy="12" stdDeviation="16" flood-color="#000000" flood-opacity="0.25" />
    </filter>
  </defs>

  
      <rect x="34" y="200" width="8" height="50" rx="3" fill="#364254" />
      <rect x="34" y="265" width="8" height="50" rx="3" fill="#364254" />
      <rect x="358" y="230" width="8" height="75" rx="4" fill="#364254" />

  <rect x="40" y="40" width="320" height="720" rx="60" fill="url(#body-grad)" filter="url(#shadow)" stroke="url(#bevel-grad)" stroke-width="2" />
  <rect x="42" y="42" width="316" height="716" rx="58" fill="none" stroke="#ffffff" stroke-opacity="0.08" stroke-width="1.5" />

  
      <g>
        <rect x="40" y="70" width="320" height="70" rx="12" fill="url(#ring-grad)" stroke="#ffffff" stroke-opacity="0.2" stroke-width="1.5" />
        <rect x="65" y="83" width="130" height="44" rx="22" fill="#0b131c" stroke="#1E2530" stroke-width="1.5" />
        <circle cx="95" cy="105" r="14" fill="url(#lens-glass)" />
        <circle cx="160" cy="105" r="14" fill="url(#lens-glass)" />
        <circle cx="235" cy="105" r="14" fill="#0b131c" stroke="#1E2530" stroke-width="1.5" />
        <circle cx="235" cy="105" r="10" fill="url(#lens-glass)" />
        <circle cx="310" cy="105" r="8" fill="#EAECEE" /><circle cx="310" cy="105" r="5" fill="#F4D03F" opacity="0.9" />
      </g>
  <text x="200" y="380" font-family="Arial, sans-serif" font-weight="bold" font-size="22" fill="#ffffff" opacity="0.25" text-anchor="middle">G</text>
</svg>