<svg xmlns="http://www.w3.org/2000/svg" viewBox="0 0 400 800" width="100%" height="100%">
  <defs>
    <linearGradient id="body-grad" x1="0%" y1="0%" x2="100%" y2="100%">
      <stop offset="0%" stop-color="#688B9E" />
      <stop offset="40%" stop-color="#4A6B7D" />
      <stop offset="100%" stop-color="#2E4A5C" />
    </linearGradient>
    <linearGradient id="bevel-grad" x1="0%" y1="0%" x2="0%" y2="100%">
      <stop offset="0%" stop-color="#ffffff" stop-opacity="0.2" />
      <stop offset="100%" stop-color="#000000" stop-opacity="0.3" />
    </linearGradient>
    <linearGradient id="ring-grad" x1="0%" y1="0%" x2="100%" y2="100%">
      <stop offset="0%" stop-color="#7BA0B5" />
      <stop offset="100%" stop-color="#1E3442" />
    </linearGradient>
    <radialGradient id="lens-glass" cx="40%" cy="40%" r="60%">
      <stop offset="0%" stop-color="#1c2d42" />
      <stop offset="70%" stop-color="#0b131c" />
      <stop offset="100%" stop-color="#020406" />
    </radialGradient>
    <filter id="shadow" x="-10%" y="-10%" width="120%" height="120%">
      <feDropShadow dx="0" dy="12" stdDeviation="16" flood-color="#000000" flood-opacity="0.25" />
    </filter>
  </defs>

  
      <rect x="34" y="200" width="8" height="50" rx="3" fill="#364254" />
      <rect x="34" y="265" width="8" height="50" rx="3" fill="#364254" />
      <rect x="358" y="230" width="8" height="75" rx="4" fill="#364254" />

  <rect x="40" y="40" width="320" height="720" rx="60" fill="url(#body-grad)" filter="url(#shadow)" stroke="url(#bevel-grad)" stroke-width="2" />
  <rect x="42" y="42" width="316" height="716" rx="58" fill="none" stroke="#ffffff" stroke-opacity="0.08" stroke-width="1.5" />

  
      <g transform="translate(65, 60)">
        <rect x="0" y="0" width="95" height="160" rx="47.5" fill="url(#ring-grad)" stroke="#ffffff" stroke-opacity="0.2" stroke-width="1.5" />
        <circle cx="47.5" cy="47.5" r="28" fill="#1A222D" stroke="#ffffff" stroke-opacity="0.1" stroke-width="1" />
        <circle cx="47.5" cy="47.5" r="22" fill="url(#lens-glass)" />
        <circle cx="47.5" cy="115" r="18" fill="#1A222D" />
        <circle cx="47.5" cy="115" r="13" fill="url(#lens-glass)" />
        <circle cx="75" cy="80" r="6" fill="#EAECEE" /><circle cx="75" cy="80" r="3.5" fill="#F4D03F" opacity="0.8" />
      </g>
  <text x="200" y="380" font-family="Arial, sans-serif" font-weight="bold" font-size="16" letter-spacing="4" fill="#ffffff" opacity="0.2" text-anchor="middle">OPPO</text>
</svg>