<svg xmlns="http://www.w3.org/2000/svg" viewBox="0 0 400 800" width="100%" height="100%">
  <defs>
    <linearGradient id="body-grad" x1="0%" y1="0%" x2="100%" y2="100%">
      <stop offset="0%" stop-color="#5E6B54" />
      <stop offset="40%" stop-color="#424C3B" />
      <stop offset="100%" stop-color="#272F22" />
    </linearGradient>
    <linearGradient id="bevel-grad" x1="0%" y1="0%" x2="0%" y2="100%">
      <stop offset="0%" stop-color="#ffffff" stop-opacity="0.2" />
      <stop offset="100%" stop-color="#000000" stop-opacity="0.3" />
    </linearGradient>
    <linearGradient id="ring-grad" x1="0%" y1="0%" x2="100%" y2="100%">
      <stop offset="0%" stop-color="#718066" />
      <stop offset="100%" stop-color="#181F15" />
    </linearGradient>
    <radialGradient id="lens-glass" cx="40%" cy="40%" r="60%">
      <stop offset="0%" stop-color="#1c2d42" />
      <stop offset="70%" stop-color="#0b131c" />
      <stop offset="100%" stop-color="#020406" />
    </radialGradient>
    <filter id="shadow" x="-10%" y="-10%" width="120%" height="120%">
      <feDropShadow dx="0" dy="12" stdDeviation="16" flood-color="#000000" flood-opacity="0.25" />
    </filter>
  </defs>

  
      <rect x="34" y="200" width="8" height="50" rx="3" fill="#364254" />
      <rect x="34" y="265" width="8" height="50" rx="3" fill="#364254" />
      <rect x="358" y="230" width="8" height="75" rx="4" fill="#364254" />

  <rect x="40" y="40" width="320" height="720" rx="60" fill="url(#body-grad)" filter="url(#shadow)" stroke="url(#bevel-grad)" stroke-width="2" />
  <rect x="42" y="42" width="316" height="716" rx="58" fill="none" stroke="#ffffff" stroke-opacity="0.08" stroke-width="1.5" />

  
      <g transform="translate(200, 140)">
        <circle cx="0" cy="0" r="65" fill="url(#ring-grad)" stroke="#ffffff" stroke-opacity="0.2" stroke-width="2" />
        <circle cx="0" cy="0" r="58" fill="#0b131c" stroke="#ffffff" stroke-opacity="0.05" stroke-width="1" />
        <g transform="translate(-25, -20)"><circle cx="0" cy="0" r="14" fill="url(#lens-glass)" stroke="#222" stroke-width="1" /></g>
        <g transform="translate(25, -20)"><circle cx="0" cy="0" r="14" fill="url(#lens-glass)" stroke="#222" stroke-width="1" /></g>
        <g transform="translate(0, 25)"><circle cx="0" cy="0" r="14" fill="url(#lens-glass)" stroke="#222" stroke-width="1" /></g>
        <circle cx="0" cy="-32" r="5" fill="#EAECEE" /><circle cx="0" cy="-32" r="3" fill="#F4D03F" opacity="0.8" />
      </g>
  <text x="200" y="380" font-family="Arial, sans-serif" font-weight="bold" font-size="14" letter-spacing="3" fill="#ffffff" opacity="0.2" text-anchor="middle">realme</text>
</svg>