<svg xmlns="http://www.w3.org/2000/svg" viewBox="0 0 400 800" width="100%" height="100%">
  <defs>
    <linearGradient id="body-grad" x1="0%" y1="0%" x2="100%" y2="100%">
      <stop offset="0%" stop-color="#3D6A87" />
      <stop offset="40%" stop-color="#274B61" />
      <stop offset="100%" stop-color="#142E3D" />
    </linearGradient>
    <linearGradient id="bevel-grad" x1="0%" y1="0%" x2="0%" y2="100%">
      <stop offset="0%" stop-color="#ffffff" stop-opacity="0.2" />
      <stop offset="100%" stop-color="#000000" stop-opacity="0.3" />
    </linearGradient>
    <linearGradient id="ring-grad" x1="0%" y1="0%" x2="100%" y2="100%">
      <stop offset="0%" stop-color="#4E80A3" />
      <stop offset="100%" stop-color="#0D202B" />
    </linearGradient>
    <radialGradient id="lens-glass" cx="40%" cy="40%" r="60%">
      <stop offset="0%" stop-color="#1c2d42" />
      <stop offset="70%" stop-color="#0b131c" />
      <stop offset="100%" stop-color="#020406" />
    </radialGradient>
    <filter id="shadow" x="-10%" y="-10%" width="120%" height="120%">
      <feDropShadow dx="0" dy="12" stdDeviation="16" flood-color="#000000" flood-opacity="0.25" />
    </filter>
  </defs>

  
      <rect x="34" y="200" width="8" height="50" rx="3" fill="#364254" />
      <rect x="34" y="265" width="8" height="50" rx="3" fill="#364254" />
      <rect x="358" y="230" width="8" height="75" rx="4" fill="#364254" />

  <rect x="40" y="40" width="320" height="720" rx="60" fill="url(#body-grad)" filter="url(#shadow)" stroke="url(#bevel-grad)" stroke-width="2" />
  <rect x="42" y="42" width="316" height="716" rx="58" fill="none" stroke="#ffffff" stroke-opacity="0.08" stroke-width="1.5" />

  
      <g>
        <rect x="62" y="62" width="126" height="126" rx="28" fill="url(#ring-grad)" stroke="#ffffff" stroke-opacity="0.1" stroke-width="1" />
        <rect x="66" y="66" width="118" height="118" rx="24" fill="none" stroke="#000000" stroke-opacity="0.25" stroke-width="1.5" />
        <g transform="translate(95, 95)"><circle cx="0" cy="0" r="23" fill="#1E2530" stroke="#ffffff" stroke-opacity="0.15" stroke-width="1" /><circle cx="0" cy="0" r="19" fill="url(#lens-glass)" /><circle cx="-4" cy="-4" r="7" fill="#000000" /><circle cx="-5" cy="-5" r="2" fill="#ffffff" opacity="0.4" /></g>
        <g transform="translate(95, 155)"><circle cx="0" cy="0" r="23" fill="#1E2530" stroke="#ffffff" stroke-opacity="0.15" stroke-width="1" /><circle cx="0" cy="0" r="19" fill="url(#lens-glass)" /><circle cx="-4" cy="-4" r="7" fill="#000000" /><circle cx="-5" cy="-5" r="2" fill="#ffffff" opacity="0.4" /></g>
        <g transform="translate(155, 125)"><circle cx="0" cy="0" r="23" fill="#1E2530" stroke="#ffffff" stroke-opacity="0.15" stroke-width="1" /><circle cx="0" cy="0" r="19" fill="url(#lens-glass)" /><circle cx="-4" cy="-4" r="7" fill="#000000" /><circle cx="-5" cy="-5" r="2" fill="#ffffff" opacity="0.4" /></g>
        <circle cx="155" cy="95" r="9" fill="#EAECEE" stroke="#7F8C8D" stroke-width="1" /><circle cx="155" cy="95" r="6" fill="#F4D03F" opacity="0.8" />
        <circle cx="155" cy="155" r="7" fill="#2C3E50" stroke="#1A252F" stroke-width="1" /><circle cx="155" cy="155" r="5" fill="#111" />
      </g>
  <text x="200" y="380" font-family="Arial, sans-serif" font-weight="bold" font-size="16" letter-spacing="3" fill="#ffffff" opacity="0.2" text-anchor="middle">XIAOMI</text>
</svg>